<?xml version="1.0" encoding="utf-8"?>
<!-- Generator: Adobe Illustrator 19.0.0, SVG Export Plug-In . SVG Version: 6.00 Build 0)  -->
<svg version="1.1" id="Layer_1" xmlns="http://www.w3.org/2000/svg" xmlns:xlink="http://www.w3.org/1999/xlink" x="0px" y="0px"
	 viewBox="-251 366 109 62" style="enable-background:new -251 366 109 62;" xml:space="preserve">
<style type="text/css">
	.st0{fill:#0E1112;}
</style>
<g>
	<path class="st0" d="M-239.8,391.6h11.3v-14.9h4.2c6.7,0,11.3,4.6,12.6,14.9h11.9c-2.2-11-11.2-16.1-24.1-16.1h-16.5
		c0.5,3.9,0.7,6.6,0.7,12.1L-239.8,391.6L-239.8,391.6z"/>
	<path class="st0" d="M-211.9,403.8c-1.5,9.3-6,13.9-12.5,13.9h-4.2v-13.9h-11.3v3c0,5.6-0.2,8.3-0.7,12.1h16.5
		c12.8,0,21.4-5.1,23.9-15.1H-211.9z"/>
</g>
<g>
	<path class="st0" d="M-192.8,391.5h11.3v-14.7h3.2c5.2,0,9.4,2.2,9.4,10.4c0,1.7-0.2,3.1-0.5,4.3h11c0.5-1.3,0.8-2.6,0.8-4.3
		c0-9.9-9.7-11.7-20.6-11.7h-15.3c0.5,3.9,0.6,6.5,0.6,12.1C-192.8,387.5-192.8,391.5-192.8,391.5z"/>
	<path class="st0" d="M-181.5,403.6h-11.3v3.1c0,5.6-0.1,8.3-0.6,12.1h12.6c-0.5-3.9-0.6-6.6-0.6-12.1
		C-181.5,406.8-181.5,403.6-181.5,403.6z"/>
	<path class="st0" d="M-159.6,409c-1-2.1-2-3.9-3.4-5.3h-10.4c0.6,1.4,1.3,3.3,2.1,5.6c2.8,8.8,10.2,9.6,21.5,9.6v-1.1
		C-154.7,417.8-157,415.3-159.6,409z"/>
</g>
<g>
	<g>
		<path class="st0" d="M-234.8,394.8c0.5,0.2,0.8,0.6,1,1.1c0.3,0.4,0.3,1,0.3,1.6c0,0.5-0.2,1.1-0.3,1.5c-0.3,0.5-0.7,0.8-1,1
			c-0.5,0.2-1,0.4-1.7,0.4h-1.9v-5.9h1.9C-235.8,394.6-235.2,394.6-234.8,394.8z M-234.9,399.1c0.3-0.4,0.6-0.9,0.6-1.5
			c0-0.7-0.2-1.2-0.6-1.7c-0.3-0.3-0.9-0.5-1.5-0.5h-1v4.3h1C-235.7,399.6-235.2,399.5-234.9,399.1z"/>
		<path class="st0" d="M-230.1,396.8c0.2-0.4,0.5-0.6,0.8-0.9c0.3-0.2,0.7-0.3,1.2-0.3c0.3,0,0.7,0.1,1,0.2s0.5,0.4,0.6,0.5v-0.7
			h0.9v4.7h-1v-0.7c-0.2,0.2-0.3,0.4-0.7,0.6c-0.3,0.1-0.7,0.2-1,0.2c-0.5,0-0.8-0.1-1.2-0.3c-0.4-0.3-0.6-0.5-0.8-0.8
			c-0.2-0.4-0.3-0.8-0.3-1.3S-230.4,397.1-230.1,396.8z M-226.8,397.1c-0.2-0.2-0.3-0.4-0.5-0.6c-0.2-0.1-0.5-0.2-0.7-0.2
			s-0.5,0.1-0.7,0.2c-0.2,0.2-0.5,0.3-0.5,0.6c-0.1,0.3-0.2,0.5-0.2,0.9s0.1,0.6,0.2,0.9c0.2,0.2,0.3,0.4,0.5,0.6
			c0.2,0.1,0.4,0.2,0.7,0.2s0.5-0.1,0.7-0.2c0.2-0.2,0.3-0.3,0.5-0.6c0.2-0.2,0.2-0.5,0.2-0.9S-226.7,397.5-226.8,397.1z"/>
		<path class="st0" d="M-218.8,395.8c0.3,0.1,0.5,0.4,0.7,0.7s0.2,0.6,0.2,1v2.8h-1v-2.6c0-0.4,0-0.7-0.3-1
			c-0.2-0.2-0.5-0.4-0.8-0.4s-0.7,0.1-0.8,0.4c-0.2,0.2-0.3,0.6-0.3,1v2.6h-1v-4.8h1v0.6c0.2-0.2,0.3-0.4,0.7-0.4
			c0.2-0.2,0.5-0.2,0.8-0.2C-219.4,395.6-219.1,395.8-218.8,395.8z"/>
		<path class="st0" d="M-214.4,395c-0.2-0.1-0.2-0.3-0.2-0.4c0-0.2,0-0.4,0.2-0.5s0.3-0.2,0.5-0.2s0.3,0.1,0.5,0.2s0.2,0.3,0.2,0.5
			c0,0.1,0,0.3-0.2,0.4s-0.3,0.2-0.5,0.2C-214.1,395.1-214.3,395.1-214.4,395z M-213.5,395.8v4.7h-1v-4.7H-213.5z"/>
		<path class="st0" d="M-209.3,400.3c-0.3-0.1-0.5-0.3-0.7-0.5c-0.2-0.3-0.3-0.5-0.3-0.8h1c0,0.2,0.1,0.4,0.3,0.5
			c0.1,0.1,0.3,0.2,0.6,0.2s0.5,0,0.7-0.1c0.1-0.1,0.2-0.2,0.2-0.5c0-0.1,0-0.3-0.3-0.5c-0.2,0-0.5-0.2-0.8-0.3
			c-0.4,0-0.7-0.2-0.9-0.3c-0.2-0.1-0.5-0.2-0.5-0.5c-0.1-0.2-0.2-0.5-0.2-0.7s0-0.5,0.2-0.7s0.4-0.4,0.7-0.5s0.5-0.2,0.9-0.2
			c0.5,0,1,0.1,1.3,0.4s0.5,0.6,0.5,1.1h-1c0-0.2,0-0.4-0.3-0.5c-0.1-0.1-0.3-0.2-0.6-0.2s-0.5,0.1-0.5,0.2c-0.2,0-0.2,0.2-0.2,0.3
			c0,0.2,0,0.2,0.1,0.3c0,0.1,0.2,0.1,0.4,0.2c0.1,0.1,0.3,0.2,0.5,0.2c0.3,0,0.6,0.2,0.8,0.3c0.2,0.1,0.5,0.2,0.5,0.5
			c0.2,0.2,0.2,0.5,0.2,0.7s0,0.5-0.2,0.7c-0.1,0.2-0.3,0.4-0.6,0.5s-0.5,0.2-0.9,0.2C-208.7,400.6-208.9,400.5-209.3,400.3z"/>
		<path class="st0" d="M-199.9,395.8c0.3,0.1,0.5,0.4,0.7,0.7c0.1,0.3,0.2,0.6,0.2,1v2.8h-1v-2.6c0-0.4,0-0.7-0.3-1
			c-0.2-0.2-0.5-0.4-0.9-0.4c-0.3,0-0.6,0.1-0.8,0.4c-0.2,0.2-0.3,0.6-0.3,1v2.6h-1V394h1v2.1c0.1-0.2,0.3-0.3,0.6-0.4
			s0.5-0.1,0.9-0.1C-200.4,395.6-200.1,395.8-199.9,395.8z"/>
	</g>
	<g>
		<path class="st0" d="M-188.7,400.3l-1.4-2.3h-0.7v2.3h-1v-5.9h2c0.5,0,0.9,0,1.1,0.2c0.3,0.1,0.6,0.4,0.7,0.6s0.2,0.5,0.2,0.9
			s-0.1,0.7-0.4,1.1c-0.2,0.3-0.5,0.5-1,0.6l1.5,2.5L-188.7,400.3L-188.7,400.3z M-190.8,397.3h1c0.4,0,0.6,0,0.9-0.3
			c0.2-0.2,0.3-0.5,0.3-0.7s-0.1-0.5-0.3-0.7c-0.2-0.1-0.4-0.3-0.9-0.3h-1V397.3z"/>
		<path class="st0" d="M-184.2,396.8c0.2-0.4,0.5-0.6,0.8-0.9c0.4-0.2,0.7-0.3,1.2-0.3c0.3,0,0.7,0.1,1,0.2s0.5,0.4,0.6,0.5v-0.7h1
			v4.7h-1v-0.7c-0.1,0.2-0.4,0.4-0.6,0.6c-0.3,0.1-0.7,0.2-1,0.2c-0.5,0-0.8-0.1-1.2-0.3c-0.3-0.3-0.5-0.5-0.8-0.8
			c-0.2-0.4-0.3-0.8-0.3-1.3S-184.4,397.1-184.2,396.8z M-180.9,397.1c-0.1-0.2-0.3-0.4-0.5-0.6c-0.2-0.1-0.4-0.2-0.7-0.2
			s-0.5,0.1-0.7,0.2c-0.2,0.2-0.4,0.3-0.5,0.6c-0.1,0.2-0.2,0.5-0.2,0.9s0,0.6,0.2,0.9c0.1,0.2,0.3,0.4,0.5,0.6
			c0.2,0.1,0.5,0.2,0.7,0.2s0.5-0.1,0.7-0.2c0.2-0.2,0.4-0.3,0.5-0.6c0.2-0.2,0.2-0.5,0.2-0.9S-180.7,397.5-180.9,397.1z"/>
		<path class="st0" d="M-175.3,399.6h2.2v0.8h-3.3v-0.8l2.2-3.1h-2.2v-0.8h3.3v0.8L-175.3,399.6z"/>
		<path class="st0" d="M-170,396.8c0.2-0.4,0.5-0.6,0.8-0.9c0.4-0.2,0.7-0.3,1.1-0.3s0.7,0.1,1,0.2s0.5,0.4,0.6,0.5v-0.7h1v4.7h-1
			v-0.7c-0.1,0.2-0.4,0.4-0.6,0.6c-0.3,0.1-0.6,0.2-1,0.2s-0.8-0.1-1.1-0.3c-0.3-0.2-0.6-0.5-0.8-0.8c-0.3-0.4-0.3-0.8-0.3-1.3
			S-170.2,397.1-170,396.8z M-166.7,397.1c-0.1-0.2-0.3-0.4-0.5-0.6c-0.2-0.1-0.4-0.2-0.7-0.2s-0.5,0.1-0.7,0.2
			c-0.2,0.2-0.4,0.3-0.5,0.6c-0.1,0.2-0.2,0.5-0.2,0.9s0.1,0.6,0.2,0.9c0.1,0.2,0.3,0.4,0.5,0.6c0.2,0.1,0.4,0.2,0.7,0.2
			s0.5-0.1,0.7-0.2c0.2-0.2,0.4-0.3,0.5-0.6c0.1-0.2,0.2-0.5,0.2-0.9S-166.6,397.5-166.7,397.1z"/>
	</g>
</g>
</svg>
